<svg width="24" height="24" viewBox="0 0 24 24" fill="currentColor" xmlns="http://www.w3.org/2000/svg">
<g clip-path="url(#clip0_2054_394)">
<path d="M11.29 15.11C11.38 15.2 11.49 15.28 11.62 15.33C11.74 15.38 11.87 15.41 12 15.41C12.13 15.41 12.26 15.38 12.38 15.33C12.5 15.28 12.61 15.21 12.71 15.11L16.44 11.38C16.83 10.99 16.83 10.36 16.44 9.97001C16.05 9.58001 15.42 9.58001 15.03 9.97001L13 12V3.20001C13 2.65001 12.55 2.20001 12 2.20001C11.45 2.20001 11 2.65001 11 3.20001V11.99L8.96996 9.96001C8.57996 9.57001 7.94996 9.57001 7.55996 9.96001C7.16996 10.35 7.16996 10.98 7.55996 11.37L11.29 15.1V15.11Z" fill="currentColor"/>
<path d="M20.4 15.27C19.85 15.27 19.4 15.72 19.4 16.27V18.14C19.4 18.37 19.31 18.59 19.15 18.75C18.99 18.91 18.77 19 18.54 19H5.46999C5.23999 19 5.01999 18.91 4.85999 18.75C4.69999 18.59 4.60999 18.37 4.60999 18.14V16.27C4.60999 15.72 4.15999 15.27 3.60999 15.27C3.05999 15.27 2.60999 15.72 2.60999 16.27V18.14C2.60999 18.89 2.91999 19.63 3.44999 20.17C3.98999 20.71 4.70999 21.01 5.47999 21.01H18.55C19.32 21.01 20.04 20.71 20.58 20.17C21.11 19.64 21.42 18.9 21.42 18.14V16.27C21.42 15.72 20.97 15.27 20.42 15.27H20.4Z" fill="currentColor"/>
</g>
<defs>
<clipPath id="clip0_2054_394">
<rect width="24" height="24" fill="white"/>
</clipPath>
</defs>
</svg>
