<svg width="24" height="24" viewBox="0 0 24 24" fill="currentColor" xmlns="http://www.w3.org/2000/svg">
<g clip-path="url(#clip0_2054_403)">
<path d="M21.04 10.96L12.64 2.55999C12.29 2.20999 11.72 2.20999 11.37 2.55999L2.96001 10.96C2.61001 11.31 2.61001 11.88 2.96001 12.23C3.31001 12.58 3.88001 12.58 4.23001 12.23L11.99 4.46999L19.75 12.23C19.93 12.41 20.16 12.49 20.39 12.49C20.62 12.49 20.85 12.4 21.03 12.23C21.38 11.88 21.38 11.31 21.03 10.96H21.04Z" fill="currentColor"/>
<path d="M20 15.9H17.7V13.6C17.7 13.1 17.3 12.7 16.8 12.7C16.3 12.7 15.9 13.1 15.9 13.6V15.9H13.6C13.1 15.9 12.7 16.3 12.7 16.8C12.7 17.3 13.1 17.7 13.6 17.7H15.9V20C15.9 20.5 16.3 20.9 16.8 20.9C17.3 20.9 17.7 20.5 17.7 20V17.7H20C20.5 17.7 20.9 17.3 20.9 16.8C20.9 16.3 20.5 15.9 20 15.9Z" fill="currentColor"/>
<path d="M10.8 19.1H6.89998V14.4C6.89998 13.9 6.49998 13.5 5.99998 13.5C5.49998 13.5 5.09998 13.9 5.09998 14.4V20C5.09998 20.5 5.49998 20.9 5.99998 20.9H10.8C11.3 20.9 11.7 20.5 11.7 20C11.7 19.5 11.3 19.1 10.8 19.1Z" fill="currentColor"/>
</g>
<defs>
<clipPath id="clip0_2054_403">
<rect width="24" height="24" fill="white"/>
</clipPath>
</defs>
</svg>
