<svg width="20" height="20" viewBox="0 0 20 20" fill="currentColor" xmlns="http://www.w3.org/2000/svg">
<g clip-path="url(#clip0_4_33963)">
<path d="M13.6667 17.5833C12.8834 17.5833 12.1084 17.3583 11.45 16.9333H11.4334C8.12502 14.6916 5.31669 11.875 3.08335 8.56662C2.56669 7.76662 2.35002 6.81662 2.45002 5.89162C2.55002 4.96662 2.96669 4.09162 3.63335 3.42496L4.10002 2.95829C4.80002 2.25829 6.04169 2.25829 6.74169 2.95829L8.72502 4.94162C9.08335 5.29996 9.27502 5.76662 9.27502 6.26662C9.27502 6.76662 9.08335 7.23329 8.72502 7.58329C8.65002 7.65829 8.61669 7.74996 8.61669 7.84996C8.61669 7.94996 8.65835 8.04162 8.72502 8.10829L11.9 11.2833C12.0417 11.425 12.2834 11.425 12.425 11.2833C13.1167 10.5916 14.375 10.5916 15.0667 11.2833L17.0417 13.2583C17.3917 13.6083 17.5917 14.0916 17.5917 14.5833C17.5917 15.075 17.4 15.55 17.0417 15.9L16.5667 16.375C15.9084 17.0333 15.0334 17.45 14.1084 17.5583C13.9584 17.575 13.8167 17.5833 13.6667 17.5833ZM12.2667 15.675C12.7667 15.9916 13.3667 16.125 13.95 16.0666C14.5417 16 15.0917 15.7333 15.5167 15.3166L15.9917 14.85C16.0584 14.7833 16.1 14.6833 16.1 14.5916C16.1 14.5 16.0584 14.4 15.9917 14.325L14.0167 12.35C13.8834 12.2083 13.6334 12.2083 13.4917 12.35C12.7834 13.0583 11.55 13.0583 10.85 12.35L7.67502 9.17496C7.32502 8.82496 7.12502 8.34996 7.12502 7.84996C7.12502 7.34996 7.31669 6.88329 7.67502 6.52496C7.74169 6.45829 7.78335 6.35829 7.78335 6.26662C7.78335 6.17496 7.74169 6.07496 7.67502 5.99996L5.69169 4.02496C5.55002 3.88329 5.30835 3.88329 5.16669 4.02496L4.70002 4.49162C4.28335 4.90829 4.01669 5.46662 3.95002 6.05829C3.88335 6.64996 4.02502 7.24996 4.35002 7.74996C6.46669 10.8833 9.13335 13.55 12.2834 15.675H12.2667Z" fill="currentColor"/>
<path d="M16.8332 9.17497C16.5166 9.17497 16.2249 8.97497 16.1249 8.66664C15.7499 7.5583 15.1166 6.5333 14.2916 5.7083C13.4666 4.8833 12.4416 4.24997 11.3332 3.87497C10.9416 3.74164 10.7249 3.31664 10.8582 2.92497C10.9916 2.5333 11.4166 2.32497 11.8082 2.44997C13.1332 2.89164 14.3582 3.64997 15.3499 4.64164C16.3416 5.6333 17.0999 6.8583 17.5416 8.1833C17.6749 8.57497 17.4582 8.99997 17.0666 9.1333C16.9916 9.1583 16.9082 9.17497 16.8249 9.17497H16.8332Z" fill="currentColor"/>
<path d="M13.5917 9.23332C13.3334 9.23332 13.0917 9.09999 12.9501 8.86666C12.5001 8.12499 11.8751 7.49166 11.1334 7.04999C10.7751 6.83332 10.6667 6.37499 10.8751 6.02499C11.0917 5.66666 11.5501 5.54999 11.9001 5.76666C12.8501 6.34166 13.6584 7.14166 14.2334 8.09999C14.4501 8.45832 14.3334 8.91666 13.9751 9.12499C13.8584 9.19999 13.7251 9.23332 13.5917 9.23332Z" fill="currentColor"/>
</g>
<defs>
<clipPath id="clip0_4_33963">
<rect width="20" height="20" fill="white"/>
</clipPath>
</defs>
</svg>
