<svg width="24" height="24" viewBox="0 0 24 24" fill="currentColor" xmlns="http://www.w3.org/2000/svg">
<g clip-path="url(#clip0_2054_387)">
<path d="M12 1.90002C6.98002 1.90002 2.90002 5.97002 2.90002 10.98V16.09C2.90002 17.71 4.22002 19.04 5.85002 19.04C7.48002 19.04 8.80002 17.72 8.80002 16.09V14.05C8.80002 12.43 7.48002 11.1 5.85002 11.1C5.44002 11.1 5.05002 11.18 4.70002 11.33V10.97C4.70002 6.96002 7.97002 3.69002 12 3.69002C16.03 3.69002 19.3 6.95003 19.3 10.97V11.33C18.95 11.18 18.56 11.1 18.15 11.1C16.52 11.1 15.2 12.42 15.2 14.05V16.09C15.2 17.28 15.92 18.31 16.94 18.77C16.26 19.53 14.49 20.3 12 20.3C11.5 20.3 11.1 20.7 11.1 21.2C11.1 21.7 11.5 22.1 12 22.1C15.54 22.1 18.31 20.78 18.92 18.92C20.17 18.58 21.1 17.45 21.1 16.09V10.98C21.1 5.97002 17.02 1.90002 12 1.90002ZM5.85002 12.9C6.48002 12.9 7.00002 13.41 7.00002 14.04V16.08C7.00002 16.71 6.48002 17.22 5.85002 17.22C5.22002 17.22 4.70002 16.71 4.70002 16.08V14.04C4.70002 13.41 5.22002 12.9 5.85002 12.9ZM19.3 16.09C19.3 16.72 18.78 17.23 18.15 17.23C17.52 17.23 17 16.72 17 16.09V14.05C17 13.42 17.52 12.91 18.15 12.91C18.78 12.91 19.3 13.42 19.3 14.05V16.09Z" fill="currentColor"/>
</g>
<defs>
<clipPath id="clip0_2054_387">
<rect width="24" height="24" fill="white"/>
</clipPath>
</defs>
</svg>
