<svg width="24" height="24" viewBox="0 0 24 24" fill="currentColor" xmlns="http://www.w3.org/2000/svg">
<g clip-path="url(#clip0_2054_378)">
<path d="M12 12.9C11.34 12.9 10.7 12.77 10.09 12.52C9.48001 12.27 8.94001 11.9 8.47001 11.44C8.01001 10.98 7.64001 10.43 7.39001 9.81998C7.14001 9.20998 7.01001 8.56998 7.01001 7.90998C7.01001 7.24998 7.14001 6.60998 7.39001 5.99998C7.64001 5.38998 8.00001 4.84998 8.47001 4.37998C8.94001 3.90998 9.48001 3.54998 10.09 3.29998C11.3 2.78998 12.69 2.78998 13.9 3.29998C14.51 3.54998 15.05 3.91998 15.52 4.37998C15.99 4.84998 16.35 5.38998 16.6 5.99998C16.85 6.60998 16.98 7.24998 16.98 7.90998C16.98 8.56998 16.85 9.20998 16.6 9.81998C16.35 10.43 15.98 10.98 15.52 11.44C15.05 11.91 14.51 12.27 13.9 12.52C13.29 12.77 12.65 12.9 11.99 12.9H12ZM12 4.69998C11.58 4.69998 11.17 4.77998 10.78 4.93998C10.39 5.09998 10.05 5.32998 9.75001 5.62998C9.45001 5.92998 9.22001 6.27998 9.06001 6.66998C8.90001 7.05998 8.82001 7.46998 8.82001 7.89998C8.82001 8.32998 8.90001 8.72998 9.06001 9.12998C9.22001 9.51998 9.45001 9.86998 9.75001 10.17C10.05 10.47 10.4 10.7 10.78 10.86C11.56 11.18 12.44 11.18 13.21 10.86C13.6 10.7 13.94 10.47 14.24 10.17C14.54 9.86998 14.77 9.51998 14.93 9.12998C15.09 8.73998 15.17 8.32998 15.17 7.89998C15.17 7.46998 15.09 7.06998 14.93 6.66998C14.77 6.27998 14.54 5.92998 14.24 5.62998C13.94 5.32998 13.59 5.09998 13.21 4.93998C12.82 4.77998 12.41 4.69998 11.99 4.69998H12Z" fill="currentColor"/>
<path d="M19.7 21.1H4.30004C4.01004 21.1 3.73004 20.96 3.57004 20.72C3.40004 20.48 3.36004 20.18 3.46004 19.9C4.09004 18.11 5.23004 16.59 6.77004 15.5C9.85004 13.31 14.17 13.31 17.25 15.5C18.79 16.59 19.93 18.12 20.56 19.9C20.66 20.18 20.61 20.48 20.45 20.72C20.29 20.96 20.01 21.1 19.72 21.1H19.7ZM5.69004 19.3H18.3C17.78 18.38 17.06 17.59 16.19 16.97C13.72 15.22 10.27 15.22 7.80004 16.97C6.93004 17.59 6.21004 18.39 5.69004 19.3Z" fill="currentColor"/>
</g>
<defs>
<clipPath id="clip0_2054_378">
<rect width="24" height="24" fill="white"/>
</clipPath>
</defs>
</svg>
