<svg width="80" height="32" viewBox="0 0 80 32" fill="none" xmlns="http://www.w3.org/2000/svg">
<path d="M44.0578 23.9994C43.3609 24.0026 42.6647 23.9531 41.9753 23.8515C41.4632 23.7858 40.9656 23.6356 40.503 23.4071C40.1406 23.2303 39.8171 22.9835 39.5513 22.6811C39.3039 22.362 39.1174 22.0005 39.0009 21.6145C38.8631 21.1667 38.7783 20.7045 38.7481 20.2371C38.7182 19.7187 38.6882 19.1705 38.6882 18.5484V8.16406H41.4248V18.5633C41.4167 19.0331 41.4367 19.503 41.4847 19.9705C41.5055 20.2714 41.614 20.5598 41.7968 20.8002C42.0038 21.0198 42.284 21.1568 42.585 21.1856C43.0678 21.2541 43.5553 21.2838 44.0428 21.2745V24L44.0578 23.9994Z" fill="#48484E"/>
<path d="M55.9998 23.8353H53.2632V8H55.9998V23.8353Z" fill="#48484E"/>
<path d="M26.1038 23.9994H25.9553C25.2325 23.9617 24.529 23.7536 23.9027 23.3921C23.2488 23.028 22.6687 22.5457 22.1921 21.97C21.4931 23.2442 20.2437 23.8956 18.4589 23.8956H8.41988C6.45653 23.8956 5.13285 23.0957 4.46323 21.4809C4.13397 20.6366 3.97738 19.7353 4.00263 18.8299V17.0672H6.70988V18.6969C6.65582 19.326 6.79582 19.9566 7.11118 20.5044C7.25816 20.691 7.44906 20.8386 7.66698 20.9342C7.8849 21.0298 8.12313 21.0705 8.36058 21.0526H18.3708C18.7328 21.0703 19.0952 21.0253 19.4417 20.9195C19.6464 20.861 19.8315 20.7485 19.9772 20.5938C20.0769 20.4339 20.1285 20.2488 20.1257 20.0605V19.9866C20.1204 19.9556 20.1103 19.9256 20.0958 19.8977C20.0808 19.8679 20.0658 19.8237 20.0359 19.7647C20.0209 19.705 19.976 19.6758 19.9616 19.6167C19.9236 19.559 19.8888 19.4993 19.8574 19.4378C19.8275 19.3781 19.7682 19.3048 19.7238 19.2159C19.6639 19.1419 19.6196 19.0679 19.5603 18.9773C19.5004 18.9033 19.4268 18.8144 19.3519 18.7255C19.277 18.6366 19.2034 18.5466 19.1123 18.444L16.2865 15.2293C16.1972 15.1255 16.1068 15.0217 16.0337 14.931C15.9606 14.8404 15.8852 14.7521 15.8109 14.6495C15.7366 14.5606 15.6773 14.4866 15.6025 14.4109C15.5426 14.3369 15.4983 14.2629 15.439 14.189C15.1968 13.849 15.086 13.4334 15.1269 13.0186C15.1382 12.5351 15.2935 12.0658 15.5731 11.6704C15.833 11.2947 16.2091 11.0138 16.644 10.8705L26.1038 8.16406V11.0083L18.1169 13.1856L23.844 19.7187C24.0321 19.9403 24.2359 20.1483 24.4537 20.3409C24.6123 20.5037 24.7924 20.6442 24.9892 20.7585C25.2769 20.9275 25.5809 21.0673 25.8966 21.176C26.0079 21.2118 26.1224 21.2365 26.2386 21.25H26.4632C26.8352 21.25 26.7753 21.3097 26.8825 21.429C27.0951 21.7043 27.2054 22.0446 27.1945 22.3918V22.4956C27.2078 22.8431 27.0973 23.1841 26.8825 23.4584C26.6429 23.7626 26.477 23.9994 26.1038 23.9994Z" fill="#48484E"/>
<path d="M50.4236 16.4141H47.7612V19.4802V19.6132C47.7757 19.9293 47.7141 20.2443 47.5815 20.5319C47.4727 20.7269 47.32 20.8941 47.1353 21.0204C46.9867 21.1204 46.8202 21.1909 46.6448 21.228C46.4813 21.2429 46.3453 21.2578 46.2579 21.2578H43.7603V23.984H46.1998C46.7109 23.9823 47.2184 23.8972 47.7019 23.7322C48.1999 23.5532 48.6592 23.2818 49.0556 22.9323C49.4776 22.5513 49.808 22.0805 50.0223 21.5549C50.285 20.937 50.4118 20.2703 50.3942 19.5995V19.4665L50.4236 16.4141Z" fill="#48484E"/>
<path d="M37.0975 18.7562C37.0676 18.4305 37.0233 18.1042 36.9634 17.7636C36.9035 17.423 36.8592 17.0824 36.7837 16.7561C36.7238 16.4304 36.6495 16.119 36.604 15.8374C36.5741 15.6746 36.5148 15.526 36.4998 15.393C36.4789 15.2676 36.449 15.1438 36.4106 15.0226C36.2834 14.5995 36.1088 14.1921 35.8901 13.808C35.6797 13.4097 35.3916 13.0572 35.0426 12.7713C34.6971 12.4618 34.2992 12.216 33.8674 12.0453C33.3693 11.8511 32.8407 11.7459 32.306 11.7345C31.6865 11.7017 31.0672 11.8035 30.4911 12.0328C29.9536 12.2621 29.4603 12.5828 29.0333 12.9807C28.6197 13.3958 28.2924 13.8882 28.0704 14.4296C27.8484 14.9711 27.736 15.5508 27.7396 16.1357C27.7202 16.8287 27.8735 17.5156 28.1858 18.1352C28.4711 18.6857 28.9034 19.1471 29.4352 19.4685C30.0438 19.8148 30.7158 20.0364 31.4117 20.1205C32.4226 20.2121 33.4408 20.1873 34.446 20.0465C34.4236 20.2023 34.3733 20.3528 34.2975 20.4909C34.1887 20.6859 34.0359 20.8532 33.8512 20.9795C33.7026 21.0794 33.5361 21.1499 33.3607 21.187C33.1972 21.202 33.0612 21.2169 32.9738 21.2169H26.1206V23.9424H32.9031C33.4143 23.9407 33.9217 23.8557 34.4053 23.6907C34.9032 23.5117 35.3625 23.2402 35.7589 22.8907C36.181 22.5098 36.5114 22.039 36.7256 21.5133C36.9883 20.8955 37.1151 20.2287 37.0975 19.5579C37.1356 19.292 37.1356 19.0221 37.0975 18.7562ZM31.1632 17.5858C30.8712 17.4717 30.6232 17.2683 30.4549 17.0047C30.2865 16.7412 30.2065 16.4313 30.2264 16.1196C30.2227 15.8587 30.2786 15.6005 30.3899 15.3644C30.492 15.1441 30.6512 14.9548 30.8511 14.8162C31.0421 14.6633 31.2663 14.5569 31.5058 14.5054C31.7593 14.4488 32.0197 14.4287 32.279 14.4457C32.6444 14.463 32.9943 14.5982 33.2756 14.8311C33.4736 14.9926 33.6272 15.2016 33.7219 15.4383C33.7219 15.4533 33.8261 15.764 33.8261 15.779C33.856 15.912 33.9597 16.3272 34.0058 16.564L34.2286 17.7045C33.0085 17.7189 31.7579 17.7934 31.1626 17.5858H31.1632Z" fill="#48484E"/>
<path d="M29.6435 10.6807C29.5021 10.541 29.3899 10.3749 29.3133 10.1918C29.2367 10.0088 29.1973 9.8124 29.1973 9.61408C29.1973 9.41576 29.2367 9.21941 29.3133 9.03634C29.3899 8.85328 29.5021 8.68714 29.6435 8.5475C29.7812 8.40338 29.9476 8.28943 30.132 8.21291C30.3163 8.13639 30.5147 8.09899 30.7144 8.10309C30.8507 8.09887 30.9866 8.11907 31.1157 8.16274C31.2445 8.19913 31.3691 8.24871 31.4877 8.31068C31.5979 8.38181 31.7023 8.4616 31.7997 8.54929C31.9398 8.6837 32.0511 8.84503 32.1267 9.02352C32.1985 9.20254 32.2339 9.39392 32.231 9.58664V9.71967C32.2319 9.76447 32.2268 9.8092 32.216 9.85269C32.216 9.88252 32.201 9.92666 32.201 9.95649C32.198 9.99272 32.1879 10.028 32.1711 10.0603C32.1561 10.0901 32.1561 10.1343 32.1411 10.1641C32.1269 10.2017 32.1067 10.2367 32.0812 10.2679C32.0662 10.2977 32.0513 10.3418 32.0213 10.3568C32.0067 10.3896 31.9864 10.4197 31.9614 10.4456C31.9461 10.482 31.9203 10.5129 31.8872 10.5345L31.7979 10.6234C31.6602 10.7675 31.4939 10.8815 31.3095 10.958C31.1251 11.0345 30.9267 11.0719 30.727 11.0678C30.5284 11.0959 30.3259 11.0753 30.1371 11.0079C29.9483 10.9404 29.7789 10.8281 29.6435 10.6807Z" fill="#48484E"/>
<path d="M32.2177 9.62946C32.215 9.43076 32.2532 9.2336 32.3299 9.05016C32.4066 8.86672 32.5203 8.70088 32.6639 8.56288C32.8016 8.41876 32.9679 8.30481 33.1523 8.22829C33.3367 8.15177 33.5351 8.11437 33.7348 8.11847C33.9378 8.11557 34.1396 8.15078 34.3296 8.22226C34.5153 8.29359 34.683 8.40479 34.8207 8.54797C34.9576 8.68507 35.0684 8.84574 35.1477 9.0222C35.2194 9.20122 35.2549 9.3926 35.2519 9.58532C35.2561 9.78764 35.2207 9.98883 35.1477 10.1777C35.0721 10.3562 34.9608 10.5175 34.8207 10.6519C34.7271 10.7441 34.6222 10.8242 34.5086 10.8905C34.4018 10.9548 34.2868 11.0045 34.1667 11.0385C34.0357 11.0738 33.901 11.0939 33.7653 11.0981C33.5623 11.101 33.3605 11.0658 33.1706 10.9943C32.987 10.9192 32.8203 10.8085 32.6801 10.6686C32.5432 10.5315 32.4324 10.3708 32.353 10.1944C32.2626 10.0198 32.2162 9.82591 32.2177 9.62946Z" fill="#48484E"/>
<path d="M44.801 13.6875C44.6563 13.5504 44.5419 13.3847 44.4651 13.2011C44.3882 13.0174 44.3507 12.8198 44.3548 12.6209C44.3521 12.4222 44.3902 12.2251 44.467 12.0416C44.5437 11.8582 44.6574 11.6923 44.801 11.5543C44.9387 11.4102 45.1051 11.2963 45.2895 11.2198C45.4739 11.1432 45.6722 11.1058 45.8719 11.1099C46.0084 11.1056 46.1445 11.1259 46.2738 11.1696C46.4026 11.206 46.5273 11.2556 46.6458 11.3175C46.7562 11.3886 46.8607 11.4684 46.9584 11.5561C47.0985 11.6906 47.2098 11.8519 47.2855 12.0304C47.3572 12.2094 47.3926 12.4008 47.3897 12.5935V12.7265C47.3912 12.7714 47.3862 12.8162 47.3747 12.8595C47.3747 12.8894 47.3597 12.9335 47.3597 12.9633C47.3567 12.9996 47.3466 13.0348 47.3298 13.0671C47.3148 13.097 47.3148 13.1411 47.2998 13.1709C47.2856 13.2085 47.2654 13.2436 47.2399 13.2747C47.225 13.3046 47.21 13.3487 47.18 13.3636C47.1654 13.3965 47.1451 13.4265 47.1201 13.4525C47.1049 13.4888 47.079 13.5198 47.0459 13.5414L46.9566 13.6303C46.8189 13.7744 46.6526 13.8883 46.4682 13.9648C46.2838 14.0414 46.0854 14.0788 45.8857 14.0747C45.6868 14.1068 45.4829 14.0881 45.2932 14.0204C45.1035 13.9527 44.9342 13.8382 44.801 13.6875Z" fill="#48484E"/>
<path d="M47.3445 12.6226C47.3417 12.4239 47.3799 12.2268 47.4567 12.0433C47.5334 11.8599 47.6471 11.694 47.7907 11.556C47.9284 11.4119 48.0947 11.298 48.2791 11.2215C48.4635 11.1449 48.6619 11.1075 48.8616 11.1116C49.0646 11.1087 49.2664 11.1439 49.4564 11.2154C49.64 11.2905 49.8067 11.4012 49.9469 11.5411C50.0838 11.6782 50.1946 11.8389 50.2739 12.0154C50.3456 12.1944 50.381 12.3858 50.3781 12.5785C50.3823 12.7808 50.3469 12.982 50.2739 13.1708C50.1982 13.3493 50.087 13.5107 49.9469 13.6451C49.8533 13.7373 49.7484 13.8174 49.6348 13.8837C49.528 13.9479 49.4129 13.9977 49.2928 14.0316C49.1619 14.067 49.0272 14.087 48.8915 14.0913C48.6885 14.0942 48.4867 14.059 48.2968 13.9875C48.1132 13.9124 47.9464 13.8017 47.8062 13.6618C47.6694 13.5247 47.5586 13.364 47.4792 13.1875C47.3839 13.0148 47.3374 12.8196 47.3445 12.6226Z" fill="#48484E"/>
<path d="M67.6224 4.01044C63.4655 4.20909 60.122 7.91283 60.0041 12.4256C59.9521 14.1654 60.392 15.884 61.2717 17.3783L67.8834 27.9363C67.8963 27.9559 67.9138 27.972 67.9344 27.9831C67.9549 27.9942 67.9778 28 68.001 28C68.0243 28 68.0472 27.9942 68.0677 27.9831C68.0882 27.972 68.1057 27.9559 68.1186 27.9363L74.7313 17.3783C75.5848 15.9657 76.0244 14.3359 75.999 12.6792C75.9984 7.74248 72.2093 3.76908 67.6224 4.01044ZM68.0013 18.5846C64.983 18.5846 62.5394 15.9306 62.5394 12.6525C62.5394 9.37435 64.983 6.72043 68.0013 6.72043C71.0195 6.72043 73.4632 9.37435 73.4632 12.6525C73.4632 15.9306 71.0201 18.5846 68.0018 18.5846H68.0013Z" fill="#F03E58"/>
<path d="M69.2174 8.2909L66.7353 8.88736C66.7039 8.89576 66.6764 8.91482 66.6572 8.94135C66.6381 8.96789 66.6285 9.00029 66.63 9.03314V16.0877C66.633 16.1193 66.6443 16.1496 66.6628 16.1753C66.6814 16.2009 66.7064 16.221 66.7353 16.2334L69.2179 16.8037C69.2389 16.8087 69.2608 16.8086 69.2818 16.8034C69.3028 16.7982 69.3224 16.7882 69.3389 16.774C69.3554 16.7599 69.3684 16.742 69.3769 16.7219C69.3854 16.7017 69.3891 16.6798 69.3878 16.6579V8.43454C69.3879 8.41305 69.3833 8.39181 69.3743 8.37235C69.3653 8.35289 69.3522 8.33568 69.3359 8.32195C69.3197 8.30822 69.3006 8.29832 69.2801 8.29295C69.2596 8.28758 69.2382 8.28688 69.2174 8.2909Z" fill="#F03E58"/>
</svg>
