<svg width="112" height="44" viewBox="0 0 112 44" fill="none" xmlns="http://www.w3.org/2000/svg">
<path d="M7.95881 37.7197C7.17583 37.7197 6.41044 37.4757 5.75942 37.0186C5.10839 36.5615 4.60098 35.9118 4.30135 35.1517C4.00171 34.3916 3.92332 33.5552 4.07607 32.7483C4.22882 31.9413 4.60586 31.2001 5.15951 30.6184C5.71316 30.0366 6.41855 29.6404 7.18649 29.4799C7.95442 29.3194 8.75041 29.4018 9.47378 29.7166C10.1972 30.0315 10.8154 30.5646 11.2504 31.2487C11.6854 31.9328 11.9176 32.7371 11.9176 33.5598C11.9244 34.1081 11.8267 34.6522 11.6301 35.1601C11.4336 35.6681 11.1423 36.1295 10.7733 36.5172C10.4043 36.9049 9.96518 37.2111 9.4818 37.4176C8.99842 37.6241 8.48058 37.7268 7.95881 37.7197ZM7.95881 30.8273C7.26979 30.8273 6.60898 31.1149 6.12177 31.6269C5.63456 32.1388 5.36084 32.8332 5.36084 33.5572C5.36084 34.2812 5.63456 34.9756 6.12177 35.4875C6.60898 35.9995 7.26979 36.2871 7.95881 36.2871C8.29678 36.2937 8.63248 36.2279 8.94549 36.0938C9.25849 35.9597 9.54224 35.7601 9.77947 35.5071C10.0167 35.254 10.2024 34.9529 10.3254 34.622C10.4483 34.2912 10.5058 33.9375 10.4945 33.5825C10.5033 33.2259 10.4444 32.871 10.3212 32.5386C10.1979 32.2063 10.0128 31.903 9.77671 31.6467C9.54059 31.3904 9.2582 31.1862 8.94606 31.0459C8.63392 30.9057 8.29829 30.8322 7.95881 30.8299V30.8273Z" fill="#FF96A6"/>
<path d="M14.7403 32.8669V37.5904H13.3587V32.8669H12.6787V31.5451H13.3587V29.5306H14.7403V31.5451H15.5648V32.8669H14.7403Z" fill="#FF96A6"/>
<path d="M20.9504 37.588V36.808C20.7256 37.1085 20.4368 37.3493 20.1073 37.5111C19.7778 37.6729 19.4168 37.7513 19.0532 37.7398C18.6636 37.7464 18.2769 37.6689 17.917 37.512C17.5572 37.3551 17.2318 37.1222 16.9611 36.8277C16.6904 36.5332 16.4802 36.1834 16.3435 35.8001C16.2068 35.4167 16.1464 35.0079 16.1663 34.599C16.145 34.1841 16.2053 33.769 16.3436 33.3797C16.4818 32.9904 16.6949 32.6352 16.9697 32.3364C17.2444 32.0375 17.5748 31.8014 17.9403 31.6428C18.3058 31.4842 18.6985 31.4065 19.0939 31.4145C19.4583 31.3907 19.8224 31.4659 20.151 31.6329C20.4797 31.8 20.7619 32.0532 20.9703 32.3681V31.5445H22.2282V37.5644H20.9496L20.9504 37.588ZM19.2392 32.7354C19.0087 32.7333 18.7803 32.7817 18.5686 32.8773C18.3569 32.973 18.1664 33.114 18.0093 33.2913C17.8523 33.4685 17.7321 33.6782 17.6563 33.907C17.5806 34.1357 17.551 34.3785 17.5695 34.6199C17.5583 34.8563 17.5944 35.0925 17.6754 35.3133C17.7564 35.5342 17.8805 35.7347 18.0398 35.9021C18.199 36.0694 18.3899 36.1999 18.6 36.285C18.8102 36.3701 19.035 36.408 19.2599 36.3962C19.4838 36.4076 19.7075 36.3692 19.9164 36.2837C20.1252 36.1981 20.3146 36.0673 20.4721 35.8997C20.6296 35.7321 20.7518 35.5315 20.8306 35.311C20.9095 35.0905 20.9432 34.855 20.9296 34.6199C20.9425 34.378 20.9083 34.1359 20.8293 33.9083C20.7502 33.6807 20.6278 33.4724 20.4697 33.2961C20.3115 33.1198 20.1209 32.9791 19.9093 32.8828C19.6978 32.7864 19.4698 32.7362 19.2392 32.7354Z" fill="#FF96A6"/>
<path d="M26.3068 39.9938C25.6882 40.0349 25.0726 39.8738 24.5446 39.5324C24.0167 39.1911 23.6023 38.6863 23.3584 38.0875H24.9252C25.0993 38.3085 25.321 38.4828 25.5719 38.5958C25.8229 38.7089 26.0959 38.7574 26.3682 38.7375C27.3995 38.7375 27.9142 38.1093 27.9765 36.8093C27.7607 37.1147 27.4765 37.3595 27.1493 37.522C26.822 37.6845 26.4616 37.7598 26.1001 37.7411C25.3352 37.6894 24.6177 37.3336 24.0934 36.7461C23.5691 36.1586 23.2773 35.3834 23.2773 34.578C23.2773 33.7726 23.5691 32.9974 24.0934 32.4099C24.6177 31.8224 25.3352 31.4667 26.1001 31.415C26.4599 31.393 26.8194 31.4645 27.1467 31.6232C27.4739 31.7819 27.759 32.0229 27.9765 32.3249V31.545H29.2958V36.4412C29.2759 39.0184 28.0803 39.9938 26.3068 39.9938ZM26.2454 32.7358C26.0218 32.7329 25.8001 32.78 25.5951 32.8739C25.3901 32.9678 25.2065 33.1064 25.0564 33.2806C24.9063 33.4547 24.7931 33.6604 24.7244 33.8841C24.6557 34.1077 24.633 34.3441 24.6578 34.5776C24.6353 34.8103 24.6606 35.0455 24.732 35.267C24.8035 35.4886 24.9193 35.6915 25.0718 35.862C25.2243 36.0325 25.4098 36.1666 25.6158 36.2552C25.8219 36.3438 26.0436 36.3849 26.2661 36.3757C26.4893 36.3842 26.7117 36.3429 26.9185 36.2543C27.1254 36.1658 27.312 36.0321 27.466 35.8621C27.6199 35.6921 27.7378 35.4897 27.8118 35.2683C27.8858 35.0468 27.9142 34.8114 27.8951 34.5776C27.9138 34.3399 27.8847 34.1008 27.8098 33.8757C27.7349 33.6506 27.6158 33.4446 27.4603 33.2709C27.3047 33.0973 27.1162 32.9599 26.9069 32.8678C26.6976 32.7756 26.4722 32.7306 26.2454 32.7358Z" fill="#FF96A6"/>
<path d="M34.3064 37.589V34.5128C34.3064 33.2564 33.9975 32.7574 33.1929 32.7574C32.4091 32.7574 31.9766 33.212 31.9766 34.5337V37.5873H30.595V29.5511H31.9766V31.9774C32.3743 31.5935 32.9007 31.3908 33.4404 31.4138C34.822 31.4138 35.6879 32.2156 35.6879 34.1874V37.5899L34.3064 37.589Z" fill="#FF96A6"/>
<path d="M41.6257 37.588V36.808C41.4009 37.1085 41.1121 37.3493 40.7826 37.5111C40.4531 37.6729 40.0921 37.7513 39.7285 37.7398C39.3389 37.7464 38.9522 37.6689 38.5923 37.512C38.2324 37.3551 37.9071 37.1222 37.6364 36.8277C37.3657 36.5332 37.1555 36.1834 37.0188 35.8001C36.882 35.4167 36.8217 35.0079 36.8416 34.599C36.8203 34.1841 36.8806 33.769 37.0188 33.3797C37.1571 32.9904 37.3702 32.6352 37.645 32.3364C37.9197 32.0375 38.2501 31.8014 38.6156 31.6428C38.9811 31.4842 39.3738 31.4065 39.7692 31.4145C40.1336 31.3907 40.4977 31.4659 40.8263 31.6329C41.155 31.8 41.4372 32.0532 41.6456 32.3681V31.5445H42.9035V37.5644H41.6249L41.6257 37.588ZM39.8937 32.7346C39.6632 32.7324 39.4349 32.7808 39.2231 32.8765C39.0114 32.9722 38.8209 33.1131 38.6639 33.2904C38.5068 33.4677 38.3866 33.6773 38.3109 33.9061C38.2351 34.1348 38.2056 34.3776 38.224 34.6191C38.2128 34.8554 38.2489 35.0916 38.3299 35.3125C38.4109 35.5333 38.535 35.7339 38.6943 35.9012C38.8535 36.0685 39.0444 36.199 39.2546 36.2841C39.4647 36.3692 39.6895 36.4071 39.9145 36.3954C40.1384 36.4067 40.362 36.3683 40.5709 36.2828C40.7798 36.1972 40.9691 36.0664 41.1267 35.8988C41.2842 35.7312 41.4063 35.5307 41.4852 35.3102C41.564 35.0896 41.5977 34.8542 41.5842 34.6191C41.6005 34.3764 41.5687 34.1327 41.4909 33.9036C41.4131 33.6744 41.2909 33.4647 41.132 33.2877C40.9732 33.1107 40.7811 32.9702 40.568 32.8752C40.3548 32.7801 40.1252 32.7325 39.8937 32.7354V32.7346Z" fill="#FF96A6"/>
<path d="M47.5253 37.589L45.5667 34.7728V37.589H44.1851V29.5511H45.5667V34.4046L47.4016 31.5665H49.0514L47.0105 34.5128L49.4026 37.589H47.5253Z" fill="#FF96A6"/>
<path d="M50.6362 37.5899V36.2036H52.0178V37.5899H50.6362Z" fill="#FF96A6"/>
<path d="M56.4351 37.7196C56.0357 37.724 55.6393 37.6457 55.2687 37.489C54.8981 37.3324 54.5606 37.1005 54.2753 36.8068C53.99 36.513 53.7626 36.163 53.606 35.7768C53.4495 35.3906 53.3669 34.9759 53.363 34.5561C53.3711 33.8037 53.6313 33.0783 54.0981 32.5075C54.5648 31.9368 55.2081 31.5572 55.9148 31.4356C56.6216 31.314 57.3465 31.4581 57.9621 31.8427C58.5777 32.2272 59.0445 32.8275 59.2805 33.538H57.7345C57.6139 33.2766 57.4222 33.0588 57.1836 32.9122C56.945 32.7655 56.6703 32.6967 56.3944 32.7144C56.1712 32.7126 55.95 32.7594 55.7448 32.8516C55.5395 32.9439 55.3547 33.0797 55.2017 33.2506C55.0488 33.4215 54.9311 33.6237 54.856 33.8446C54.7809 34.0655 54.7501 34.3003 54.7654 34.5343C54.7542 34.7719 54.7892 35.0094 54.8681 35.2324C54.947 35.4554 55.0682 35.6592 55.2244 35.8315C55.3805 36.0037 55.5684 36.1408 55.7765 36.2344C55.9846 36.328 56.2087 36.3762 56.4351 36.3761C56.7018 36.3868 56.9659 36.317 57.1961 36.1749C57.4262 36.0328 57.6128 35.8244 57.7337 35.5743H59.2797C59.0911 36.2077 58.7116 36.7595 58.1985 37.1464C57.6854 37.5334 57.0665 37.7346 56.4351 37.7196Z" fill="#FF96A6"/>
<path d="M63.2968 37.719C62.7014 37.7105 62.1218 37.5166 61.6312 37.162C61.1407 36.8073 60.7612 36.3077 60.5409 35.7264C60.3205 35.1452 60.2692 34.5083 60.3933 33.8963C60.5174 33.2844 60.8114 32.7249 61.2382 32.2885C61.665 31.8522 62.2053 31.5586 62.7908 31.4449C63.3764 31.3312 63.9808 31.4026 64.5278 31.6499C65.0748 31.8972 65.5397 32.3094 65.8637 32.8344C66.1877 33.3593 66.3563 33.9735 66.3481 34.5991C66.3305 35.4357 66.0008 36.2316 65.43 36.8151C64.8593 37.3987 64.0932 37.7233 63.2968 37.719ZM63.2968 32.7356C62.9514 32.7222 62.6101 32.8176 62.3167 33.0095C62.0233 33.2014 61.7911 33.4811 61.6501 33.8127C61.5091 34.1443 61.4656 34.5126 61.5252 34.8703C61.5849 35.228 61.7449 35.5589 61.9848 35.8203C62.2246 36.0818 62.5334 36.2619 62.8715 36.3376C63.2095 36.4134 63.5614 36.3812 63.8819 36.2452C64.2023 36.1093 64.4769 35.8758 64.6701 35.5747C64.8634 35.2736 64.9666 34.9187 64.9665 34.5555C64.9714 34.3206 64.9319 34.0871 64.8505 33.8683C64.769 33.6495 64.6472 33.4498 64.492 33.2807C64.3368 33.1116 64.1513 32.9765 63.9462 32.8831C63.741 32.7897 63.5204 32.7398 63.2968 32.7364V32.7356Z" fill="#FF96A6"/>
<path d="M74.6192 37.587V34.2717C74.6192 33.0582 74.1858 32.7336 73.5473 32.7336C72.7843 32.7336 72.3924 33.1698 72.3924 34.5972V37.5635H71.0108V34.2482C71.0108 33.0564 70.6189 32.71 69.8974 32.71C69.0928 32.71 68.7839 33.1646 68.7839 34.5736V37.5399H67.4023V31.5383H68.6602V32.1019C68.8314 31.8623 69.0569 31.6714 69.3162 31.5466C69.5754 31.4218 69.8603 31.3671 70.1448 31.3874C70.4813 31.3607 70.8183 31.4338 71.1172 31.5986C71.4161 31.7633 71.6649 32.013 71.8352 32.3192C72.0412 32.0135 72.3175 31.7678 72.6384 31.6048C72.9593 31.4419 73.3143 31.3671 73.6702 31.3874C75.1755 31.3874 76 32.2756 76 34.0737V37.5635H74.6184L74.6192 37.587Z" fill="#FF96A6"/>
<path d="M59.4597 27.3991C58.4948 27.4037 57.5309 27.3314 56.5764 27.1827C55.8673 27.0866 55.1785 26.8669 54.538 26.5327C54.0363 26.2742 53.5883 25.9132 53.2204 25.4709C52.8779 25.0043 52.6196 24.4755 52.4583 23.9109C52.2675 23.256 52.1501 22.5799 52.1083 21.8964C52.0669 21.1382 52.0254 20.3364 52.0254 19.4264V4.23834H55.8143V19.4482C55.803 20.1354 55.8307 20.8227 55.8972 21.5064C55.926 21.9465 56.0761 22.3683 56.3292 22.72C56.6158 23.0412 57.0038 23.2415 57.4206 23.2836C58.089 23.3838 58.7639 23.4272 59.439 23.4136V27.3999L59.4597 27.3991Z" fill="#48484E"/>
<path d="M75.9971 27.1607H72.2083V4H75.9971V27.1607Z" fill="#48484E"/>
<path d="M34.6033 27.3992H34.3977C33.3969 27.3441 32.4229 27.0397 31.5558 26.511C30.6505 25.9784 29.8473 25.273 29.1874 24.431C28.2197 26.2946 26.4898 27.2474 24.0186 27.2474H10.1194C7.40112 27.2474 5.56846 26.0774 4.64135 23.7156C4.18549 22.4808 3.96868 21.1625 4.00365 19.8383V17.2602H7.7519V19.6438C7.67705 20.5639 7.87088 21.4862 8.3075 22.2874C8.511 22.5603 8.77531 22.7762 9.07703 22.9161C9.37875 23.0559 9.70858 23.1154 10.0373 23.0892H23.8967C24.398 23.1151 24.8997 23.0493 25.3795 22.8946C25.6629 22.809 25.919 22.6444 26.1208 22.4182C26.2589 22.1843 26.3302 21.9136 26.3265 21.6382V21.5301C26.3191 21.4847 26.3051 21.4409 26.285 21.4001C26.2643 21.3564 26.2435 21.2919 26.2021 21.2055C26.1814 21.1182 26.1192 21.0755 26.0993 20.9891C26.0467 20.9047 25.9985 20.8173 25.955 20.7274C25.9135 20.6401 25.8314 20.5328 25.77 20.4028C25.6871 20.2946 25.6257 20.1864 25.5437 20.0538C25.4607 19.9456 25.3587 19.8156 25.2551 19.6856C25.1514 19.5556 25.0494 19.4239 24.9234 19.2738L21.0109 14.5721C20.8874 14.4203 20.7621 14.2684 20.661 14.1358C20.5598 14.0032 20.4553 13.8741 20.3525 13.724C20.2497 13.594 20.1676 13.4858 20.0639 13.375C19.981 13.2668 19.9196 13.1587 19.8375 13.0505C19.5022 12.5533 19.3488 11.9454 19.4055 11.3387C19.4211 10.6315 19.6361 9.94517 20.0233 9.36688C20.3831 8.81732 20.9038 8.40649 21.506 8.19688L34.6033 4.23846V8.39843L23.5451 11.583L31.4745 21.1383C31.7349 21.4624 32.017 21.7665 32.3187 22.0483C32.5382 22.2865 32.7876 22.4919 33.0601 22.659C33.4584 22.9062 33.8793 23.1108 34.3164 23.2698C34.4705 23.322 34.6291 23.3583 34.7899 23.378H35.1009C35.6158 23.378 35.5329 23.4652 35.6813 23.6397C35.9758 24.0424 36.1285 24.54 36.1134 25.0479V25.1997C36.1318 25.708 35.9788 26.2068 35.6813 26.6079C35.3496 27.0528 35.1199 27.3992 34.6033 27.3992Z" fill="#48484E"/>
<path d="M68.2729 16.3068H64.5868V20.7913V20.9859C64.6069 21.4482 64.5216 21.9089 64.338 22.3295C64.1874 22.6148 63.9759 22.8593 63.7202 23.0441C63.5145 23.1903 63.2839 23.2934 63.0411 23.3477C62.8147 23.3695 62.6265 23.3913 62.5054 23.3913H59.0474V27.3785H62.4249C63.1326 27.376 63.8352 27.2517 64.5047 27.0103C65.1941 26.7486 65.8301 26.3515 66.3788 25.8404C66.9632 25.2832 67.4207 24.5946 67.7173 23.8258C68.081 22.9221 68.2566 21.9469 68.2322 20.9658V20.7713L68.2729 16.3068Z" fill="#48484E"/>
<path d="M49.8258 19.7299C49.7843 19.2536 49.7229 18.7763 49.64 18.2781C49.5571 17.7799 49.4957 17.2818 49.3912 16.8045C49.3083 16.3281 49.2055 15.8727 49.1425 15.4609C49.101 15.2227 49.0189 15.0055 48.9982 14.8109C48.9692 14.6275 48.9279 14.4464 48.8746 14.2691C48.6986 13.6504 48.4568 13.0545 48.154 12.4927C47.8628 11.9101 47.4638 11.3945 46.9806 10.9764C46.5024 10.5238 45.9514 10.1642 45.3536 9.91457C44.6639 9.63059 43.9321 9.47672 43.1917 9.46001C42.334 9.41207 41.4766 9.56092 40.679 9.89625C39.9349 10.2316 39.2519 10.7008 38.6606 11.2826C38.0879 11.8898 37.6349 12.61 37.3275 13.4019C37.0201 14.1938 36.8644 15.0418 36.8694 15.8971C36.8426 16.9107 37.0549 17.9155 37.4872 18.8217C37.8822 19.6268 38.4808 20.3016 39.2171 20.7717C40.0598 21.2782 40.9901 21.6024 41.9536 21.7253C43.3532 21.8593 44.7629 21.823 46.1546 21.6171C46.1237 21.845 46.054 22.0651 45.949 22.2671C45.7983 22.5523 45.5869 22.7969 45.3312 22.9816C45.1255 23.1278 44.8949 23.2309 44.652 23.2853C44.4256 23.3071 44.2374 23.3289 44.1163 23.3289H34.6279V27.3152H44.0185C44.7262 27.3127 45.4287 27.1884 46.0982 26.947C46.7877 26.6852 47.4236 26.2882 47.9724 25.7771C48.5568 25.2199 49.0142 24.5313 49.3108 23.7625C49.6745 22.8588 49.8501 21.8836 49.8258 20.9025C49.8785 20.5136 49.8785 20.1188 49.8258 19.7299ZM41.6095 18.0181C41.2053 17.8512 40.8619 17.5537 40.6288 17.1682C40.3957 16.7828 40.285 16.3295 40.3125 15.8736C40.3074 15.4921 40.3848 15.1144 40.5389 14.769C40.6802 14.4468 40.9006 14.17 41.1774 13.9672C41.4419 13.7437 41.7522 13.588 42.0838 13.5127C42.4349 13.4299 42.7954 13.4005 43.1544 13.4254C43.6603 13.4506 44.1447 13.6485 44.5343 13.989C44.8084 14.2253 45.0209 14.5309 45.1521 14.8772C45.1521 14.899 45.2964 15.3536 45.2964 15.3754C45.3378 15.57 45.4813 16.1772 45.5451 16.5236L45.8536 18.1917C44.1644 18.2127 42.4329 18.3217 41.6086 18.0181H41.6095Z" fill="#48484E"/>
<path d="M39.507 7.9211C39.3112 7.71686 39.1558 7.47386 39.0498 7.20611C38.9438 6.93836 38.8892 6.65117 38.8892 6.36111C38.8892 6.07105 38.9438 5.78386 39.0498 5.51611C39.1558 5.24836 39.3112 5.00536 39.507 4.80112C39.6976 4.59034 39.928 4.42367 40.1833 4.31176C40.4385 4.19984 40.7132 4.14514 40.9897 4.15113C41.1784 4.14496 41.3666 4.17451 41.5453 4.23838C41.7236 4.29161 41.8962 4.36412 42.0603 4.45475C42.2129 4.5588 42.3574 4.6755 42.4923 4.80374C42.6863 5.00033 42.8403 5.2363 42.9451 5.49736C43.0444 5.75918 43.0934 6.03911 43.0894 6.32098V6.51554C43.0906 6.58107 43.0837 6.64649 43.0687 6.7101C43.0687 6.75372 43.0479 6.81829 43.0479 6.86191C43.0438 6.91491 43.0297 6.96651 43.0065 7.01372C42.9857 7.05735 42.9857 7.12191 42.965 7.16553C42.9453 7.22052 42.9173 7.27179 42.8821 7.31734C42.8613 7.36097 42.8406 7.42553 42.7992 7.44734C42.7789 7.4954 42.7508 7.53939 42.7162 7.57734C42.695 7.6305 42.6592 7.67577 42.6134 7.70734L42.4898 7.83734C42.2992 8.04812 42.0689 8.21479 41.8136 8.3267C41.5583 8.43862 41.2836 8.49333 41.0071 8.48733C40.7322 8.52843 40.4518 8.49833 40.1904 8.39966C39.929 8.30099 39.6944 8.13672 39.507 7.9211Z" fill="#48484E"/>
<path d="M43.0671 6.38309C43.0633 6.09246 43.1162 5.80411 43.2225 5.53581C43.3287 5.26751 43.4861 5.02495 43.6849 4.82311C43.8755 4.61232 44.1059 4.44565 44.3612 4.33374C44.6164 4.22183 44.8911 4.16712 45.1676 4.17311C45.4487 4.16887 45.7281 4.22038 45.991 4.32492C46.2482 4.42925 46.4804 4.59189 46.671 4.8013C46.8606 5.00182 47.014 5.23682 47.1238 5.49491C47.2231 5.75674 47.2722 6.03666 47.2681 6.31853C47.2739 6.61443 47.2249 6.90869 47.1238 7.1849C47.0191 7.44596 46.865 7.68193 46.671 7.87852C46.5414 8.01333 46.3963 8.13057 46.239 8.22751C46.091 8.32148 45.9318 8.39424 45.7655 8.44388C45.5842 8.49562 45.3977 8.5249 45.2099 8.53113C44.9288 8.53536 44.6494 8.48386 44.3864 8.37932C44.1323 8.26945 43.9014 8.10752 43.7073 7.90295C43.5177 7.70244 43.3643 7.46743 43.2545 7.20933C43.1293 6.95395 43.065 6.67041 43.0671 6.38309Z" fill="#48484E"/>
<path d="M60.4898 12.3192C60.2895 12.1186 60.1311 11.8763 60.0247 11.6077C59.9183 11.3391 59.8663 11.0501 59.872 10.7592C59.8682 10.4686 59.9211 10.1802 60.0273 9.91189C60.1336 9.64358 60.291 9.40104 60.4898 9.19922C60.6805 8.98843 60.9108 8.82177 61.1661 8.70985C61.4214 8.59794 61.696 8.54323 61.9725 8.54923C62.1615 8.54295 62.35 8.5725 62.529 8.63647C62.7073 8.68971 62.8798 8.76222 63.0439 8.85285C63.1968 8.95686 63.3416 9.07356 63.4768 9.20184C63.6708 9.39843 63.8248 9.6344 63.9296 9.89545C64.0289 10.1573 64.0779 10.4372 64.0738 10.7191V10.9136C64.076 10.9792 64.0691 11.0448 64.0531 11.1082C64.0531 11.1518 64.0324 11.2164 64.0324 11.26C64.0282 11.313 64.0142 11.3646 63.9909 11.4118C63.9702 11.4554 63.9702 11.52 63.9495 11.5636C63.9298 11.6186 63.9018 11.6699 63.8665 11.7154C63.8458 11.7591 63.8251 11.8236 63.7836 11.8454C63.7633 11.8935 63.7353 11.9375 63.7007 11.9754C63.6795 12.0286 63.6437 12.0739 63.5979 12.1054L63.4743 12.2354C63.2836 12.4462 63.0533 12.6129 62.798 12.7248C62.5428 12.8367 62.2681 12.8914 61.9916 12.8854C61.7162 12.9324 61.4339 12.9051 61.1713 12.806C60.9086 12.707 60.6742 12.5395 60.4898 12.3192Z" fill="#48484E"/>
<path d="M64.0132 10.7598C64.0094 10.4692 64.0623 10.1808 64.1685 9.91249C64.2748 9.64418 64.4322 9.40163 64.631 9.19981C64.8216 8.98903 65.0519 8.82236 65.3072 8.71045C65.5625 8.59853 65.8372 8.54383 66.1137 8.54982C66.3948 8.54558 66.6742 8.59708 66.9372 8.70163C67.1914 8.81138 67.4223 8.97332 67.6163 9.178C67.8059 9.37851 67.9593 9.61352 68.0691 9.87162C68.1684 10.1335 68.2174 10.4134 68.2134 10.6952C68.2192 10.9911 68.1702 11.2854 68.0691 11.5616C67.9643 11.8227 67.8103 12.0586 67.6163 12.2552C67.4867 12.3901 67.3416 12.5073 67.1843 12.6042C67.0363 12.6982 66.877 12.771 66.7108 12.8206C66.5294 12.8723 66.343 12.9016 66.1552 12.9078C65.8741 12.9121 65.5947 12.8606 65.3317 12.756C65.0775 12.6463 64.8466 12.4843 64.6525 12.2797C64.463 12.0791 64.3096 11.8441 64.1998 11.586C64.0678 11.3334 64.0033 11.0479 64.0132 10.7598Z" fill="#48484E"/>
<path d="M95.8731 0.0191473C87.8709 0.383327 81.4348 7.17351 81.2079 15.4468C81.1078 18.6366 81.9546 21.7874 83.648 24.5269L96.3755 43.8832C96.4004 43.9191 96.4341 43.9486 96.4736 43.969C96.5131 43.9893 96.5572 44 96.6019 44C96.6467 44 96.6907 43.9893 96.7302 43.969C96.7697 43.9486 96.8034 43.9191 96.8283 43.8832L109.558 24.5269C111.201 21.9372 112.047 18.9492 111.998 15.9119C111.997 6.86122 104.703 -0.42335 95.8731 0.0191473ZM96.6024 26.7384C90.7922 26.7384 86.0882 21.8729 86.0882 15.8629C86.0882 9.85297 90.7922 4.98746 96.6024 4.98746C102.413 4.98746 107.117 9.85297 107.117 15.8629C107.117 21.8729 102.414 26.7384 96.6034 26.7384H96.6024Z" fill="#F03E58"/>
<path d="M98.9516 7.86664L94.1736 8.96016C94.1133 8.97556 94.0602 9.0105 94.0234 9.05915C93.9865 9.10779 93.968 9.16719 93.971 9.22742V22.1607C93.9767 22.2188 93.9985 22.2743 94.0341 22.3213C94.0698 22.3684 94.118 22.4052 94.1736 22.428L98.9526 23.4735C98.9931 23.4826 99.0353 23.4823 99.0757 23.4729C99.1161 23.4635 99.1537 23.445 99.1855 23.4191C99.2172 23.3931 99.2423 23.3604 99.2587 23.3234C99.275 23.2865 99.2823 23.2464 99.2798 23.2062V8.12999C99.2799 8.0906 99.271 8.05166 99.2537 8.01598C99.2365 7.98029 99.2112 7.94874 99.1799 7.92357C99.1485 7.89841 99.1118 7.88025 99.0723 7.87041C99.0329 7.86057 98.9916 7.85928 98.9516 7.86664Z" fill="#F03E58"/>
</svg>
